<svg width="47" height="25" viewBox="0 0 47 25" fill="none" xmlns="http://www.w3.org/2000/svg">
<g clip-path="url(#clip0_996_21263)">
<path fill-rule="evenodd" clip-rule="evenodd" d="M2.65165 0.864258H43.9273C45.3964 0.864258 46.579 1.80928 46.579 2.98311V22.7174C46.579 23.8912 45.3964 24.8361 43.9273 24.8361H2.65165C1.18264 24.8361 0 23.8912 0 22.7174V2.98311C0 1.80928 1.18264 0.864258 2.65165 0.864258Z" fill="#2C8CD0"/>
<path d="M6.7965 11.8849H5.58153L5.09855 11.0652H2.88745L2.43089 11.8849H1.24609L3.4006 8.27641H4.58162L6.7965 11.8849ZM4.7401 10.4572L3.97791 9.11823L3.23081 10.4572H4.7401ZM7.37758 11.8849V8.27641H9.04912L10.0528 10.7378L11.0451 8.27641H12.7205V11.8849H11.6828V9.04439L10.5848 11.8849H9.50945L8.41521 9.04439V11.8849H7.37758ZM13.8373 11.8849V8.27641H17.9388V8.88684H14.9542V9.68684H17.7313V10.2948H14.9542V11.2769H18.0445V11.8849H13.8373ZM19.0029 11.8849V8.27641H21.3536C21.9447 8.27641 22.3742 8.30889 22.6421 8.37369C22.91 8.43848 23.1245 8.55371 23.2855 8.71943C23.4465 8.8852 23.527 9.07477 23.527 9.28804C23.527 9.55883 23.405 9.7824 23.161 9.95881C22.917 10.1352 22.5522 10.2464 22.0667 10.2923C22.3082 10.3842 22.5076 10.4851 22.6648 10.5951C22.822 10.7051 23.0339 10.9003 23.3006 11.1809L23.976 11.8849H22.6403L21.8328 11.0997C21.546 10.8191 21.3498 10.6423 21.2442 10.5692C21.1385 10.4962 21.0266 10.4462 20.9084 10.4191C20.7901 10.392 20.6027 10.3786 20.3461 10.3786H20.1197V11.8851L19.0029 11.8849ZM20.1197 9.8025H20.9461C21.4819 9.80255 21.8164 9.7876 21.9498 9.75834C22.0831 9.72855 22.1875 9.67786 22.2629 9.60567C22.3384 9.53348 22.3761 9.44324 22.3761 9.33493C22.3761 9.21353 22.3265 9.11544 22.2271 9.04075C22.1277 8.96611 21.9875 8.91893 21.8064 8.89925C21.7158 8.89127 21.4441 8.88704 20.9914 8.88704H20.1197V9.8025ZM24.5495 11.8849V8.27641H25.6664V11.8849H24.5495ZM30.2659 10.5581L31.3489 10.7821C31.1828 11.176 30.9068 11.4685 30.5206 11.6597C30.1345 11.8508 29.6446 11.9464 29.051 11.9464C28.3164 11.9464 27.7127 11.7827 27.2398 11.4554C26.7669 11.128 26.5305 10.6804 26.5305 10.1127C26.5305 9.51209 26.7682 9.0456 27.2436 8.71332C27.719 8.38104 28.3441 8.21484 29.1189 8.21484C29.7955 8.21484 30.3452 8.34535 30.7678 8.60624C31.0193 8.76051 31.208 8.98202 31.3338 9.27084L30.2282 9.44312C30.1628 9.25607 30.0263 9.10841 29.8188 9.0001C29.6113 8.89179 29.3591 8.83762 29.0623 8.83762C28.6523 8.83762 28.3196 8.93363 28.0643 9.12563C27.8089 9.31762 27.6813 9.62859 27.6813 10.0585C27.6813 10.5147 27.8071 10.8396 28.0586 11.0332C28.3102 11.2268 28.6372 11.3237 29.0396 11.3237C29.3365 11.3237 29.5918 11.2621 29.8056 11.139C30.0194 11.016 30.1729 10.8223 30.2659 10.5581ZM37.2992 11.8849H36.0842L35.6013 11.0652H33.3902L32.9336 11.8849H31.7488L33.9033 8.27641H35.0843L37.2992 11.8849ZM35.2428 10.4572L34.4806 9.11823L33.7335 10.4572H35.2428ZM37.9067 11.8849V8.27641H38.9934L41.2573 10.6861V8.27641H42.295V11.8849H41.1743L38.9444 9.53176V11.8849H37.9067Z" fill="#5CC1EF" stroke="white" stroke-width="2.711" stroke-linecap="round" stroke-linejoin="round"/>
<path d="M6.7965 11.8849H5.58153L5.09855 11.0652H2.88745L2.43089 11.8849H1.24609L3.4006 8.27641H4.58162L6.7965 11.8849ZM4.7401 10.4572L3.97791 9.11823L3.23081 10.4572H4.7401ZM7.37758 11.8849V8.27641H9.04912L10.0528 10.7378L11.0451 8.27641H12.7205V11.8849H11.6828V9.04439L10.5848 11.8849H9.50945L8.41521 9.04439V11.8849H7.37758ZM13.8373 11.8849V8.27641H17.9388V8.88684H14.9542V9.68684H17.7313V10.2948H14.9542V11.2769H18.0445V11.8849H13.8373ZM19.0029 11.8849V8.27641H21.3536C21.9447 8.27641 22.3742 8.30889 22.6421 8.37369C22.91 8.43848 23.1245 8.55371 23.2855 8.71943C23.4465 8.8852 23.527 9.07477 23.527 9.28804C23.527 9.55883 23.405 9.7824 23.161 9.95881C22.917 10.1352 22.5522 10.2464 22.0667 10.2923C22.3082 10.3842 22.5076 10.4851 22.6648 10.5951C22.822 10.7051 23.0339 10.9003 23.3006 11.1809L23.976 11.8849H22.6403L21.8328 11.0997C21.546 10.8191 21.3498 10.6423 21.2442 10.5692C21.1385 10.4962 21.0266 10.4462 20.9084 10.4191C20.7901 10.392 20.6027 10.3786 20.3461 10.3786H20.1197V11.8851L19.0029 11.8849ZM20.1197 9.8025H20.9461C21.4819 9.80255 21.8164 9.7876 21.9498 9.75834C22.0831 9.72855 22.1875 9.67786 22.2629 9.60567C22.3384 9.53348 22.3761 9.44324 22.3761 9.33493C22.3761 9.21353 22.3265 9.11544 22.2271 9.04075C22.1277 8.96611 21.9875 8.91893 21.8064 8.89925C21.7158 8.89127 21.4441 8.88704 20.9914 8.88704H20.1197V9.8025ZM24.5495 11.8849V8.27641H25.6664V11.8849H24.5495ZM30.2659 10.5581L31.3489 10.7821C31.1828 11.176 30.9068 11.4685 30.5206 11.6597C30.1345 11.8508 29.6446 11.9464 29.051 11.9464C28.3164 11.9464 27.7127 11.7827 27.2398 11.4554C26.7669 11.128 26.5305 10.6804 26.5305 10.1127C26.5305 9.51209 26.7682 9.0456 27.2436 8.71332C27.719 8.38104 28.3441 8.21484 29.1189 8.21484C29.7955 8.21484 30.3452 8.34535 30.7678 8.60624C31.0193 8.76051 31.208 8.98202 31.3338 9.27084L30.2282 9.44312C30.1628 9.25607 30.0263 9.10841 29.8188 9.0001C29.6113 8.89179 29.3591 8.83762 29.0623 8.83762C28.6523 8.83762 28.3196 8.93363 28.0643 9.12563C27.8089 9.31762 27.6813 9.62859 27.6813 10.0585C27.6813 10.5147 27.8071 10.8396 28.0586 11.0332C28.3102 11.2268 28.6372 11.3237 29.0396 11.3237C29.3365 11.3237 29.5918 11.2621 29.8056 11.139C30.0194 11.016 30.1729 10.8223 30.2659 10.5581ZM37.2992 11.8849H36.0842L35.6013 11.0652H33.3902L32.9336 11.8849H31.7488L33.9033 8.27641H35.0843L37.2992 11.8849ZM35.2428 10.4572L34.4806 9.11823L33.7335 10.4572H35.2428ZM37.9067 11.8849V8.27641H38.9934L41.2573 10.6861V8.27641H42.295V11.8849H41.1743L38.9444 9.53176V11.8849H37.9067Z" fill="#2C8CD0"/>
<path d="M10.0449 17.3789V13.7705H14.1464V14.3809H11.1618V15.1809H13.9389V15.7889H11.1618V16.771H14.2521V17.3789H10.0449ZM14.6445 17.3789L16.5349 15.4959L14.8218 13.7705H16.1274L17.2367 14.9298L18.3234 13.7705H19.6176L17.897 15.523L19.7874 17.3789H18.4403L17.214 16.131L15.984 17.3789H14.6445ZM20.3685 17.3789V13.7705H22.1607C22.8399 13.7705 23.2826 13.7886 23.4889 13.8246C23.8059 13.8788 24.0712 13.9966 24.2851 14.1779C24.4989 14.3592 24.6058 14.5935 24.6058 14.8806C24.6058 15.1022 24.5441 15.2884 24.4209 15.4394C24.2976 15.5904 24.141 15.7089 23.9511 15.7951C23.7612 15.8812 23.5681 15.9382 23.3719 15.9661C23.1053 16.0007 22.7192 16.0177 22.2136 16.0177H21.4853V17.3788L20.3685 17.3789ZM21.4853 14.3809V15.4049H22.0966C22.5368 15.4049 22.8311 15.3863 22.9795 15.3483C23.1279 15.3105 23.2443 15.2514 23.3285 15.171C23.4128 15.0906 23.4549 14.9971 23.4549 14.8904C23.4549 14.7591 23.3958 14.6509 23.2776 14.5655C23.1594 14.4802 23.0097 14.4269 22.8286 14.4055C22.6953 14.389 22.4274 14.381 22.0249 14.381L21.4853 14.3809ZM25.534 17.3789V13.7705H27.8847C28.4758 13.7705 28.9054 13.803 29.1733 13.8677C29.4412 13.9325 29.6556 14.0479 29.8166 14.2136C29.9776 14.3793 30.0581 14.5688 30.0581 14.7821C30.0581 15.0529 29.9361 15.2765 29.6921 15.4529C29.4481 15.6293 29.0833 15.7405 28.5979 15.7864C28.8393 15.8783 29.0387 15.9792 29.1959 16.0892C29.3531 16.1991 29.5651 16.3944 29.8317 16.6749L30.5071 17.3789H29.1714L28.3639 16.5938C28.0771 16.3131 27.8809 16.1363 27.7753 16.0633C27.6696 15.9903 27.5577 15.9402 27.4395 15.9131C27.3212 15.886 27.1338 15.8727 26.8773 15.8727H26.6509V17.3791L25.534 17.3789ZM26.6509 15.2966H27.4772C28.013 15.2966 28.3476 15.2817 28.4809 15.2524C28.6142 15.2232 28.7186 15.172 28.7941 15.0998C28.8695 15.0276 28.9073 14.9374 28.9073 14.8291C28.9073 14.7077 28.8576 14.6096 28.7582 14.5349C28.6588 14.4603 28.5186 14.4131 28.3375 14.3934C28.2469 14.3854 27.9753 14.3812 27.5225 14.3812H26.6509V15.2966ZM31.1146 17.3789V13.7705H35.2161V14.3809H32.2315V15.1809H35.0086V15.7889H32.2315V16.771H35.3217V17.3789H31.1146ZM35.9934 16.2048L37.0801 16.1359C37.1455 16.3738 37.2781 16.5486 37.4781 16.6602C37.6781 16.7717 37.9479 16.8276 38.2875 16.8276C38.6472 16.8276 38.9182 16.7781 39.1006 16.6787C39.283 16.5794 39.3742 16.4632 39.3742 16.3304C39.3742 16.245 39.3358 16.1725 39.2591 16.1125C39.1824 16.0526 39.0484 16.0006 38.8572 15.9562C38.7264 15.927 38.4284 15.8742 37.963 15.7987C37.3643 15.7019 36.9442 15.5829 36.7027 15.4418C36.3631 15.2432 36.1933 15.0012 36.1933 14.7157C36.1933 14.5319 36.2732 14.36 36.4329 14.2001C36.5927 14.04 36.8228 13.9182 37.1234 13.8345C37.424 13.7508 37.7869 13.709 38.212 13.709C38.9063 13.709 39.4289 13.8082 39.7798 14.0068C40.1307 14.2053 40.315 14.4704 40.3326 14.8018L39.2157 14.8337C39.1679 14.6483 39.0654 14.515 38.9082 14.4337C38.751 14.3525 38.5151 14.3119 38.2007 14.3119C37.8762 14.3119 37.6221 14.3555 37.4385 14.4424C37.3203 14.4982 37.2612 14.5728 37.2612 14.6663C37.2612 14.7517 37.3165 14.8247 37.4272 14.8854C37.5681 14.9625 37.9102 15.0429 38.4535 15.1266C38.9968 15.2103 39.3987 15.2969 39.6591 15.3863C39.9194 15.4758 40.1232 15.598 40.2703 15.753C40.4175 15.9081 40.491 16.0997 40.491 16.3278C40.491 16.5346 40.403 16.7282 40.2269 16.9087C40.0508 17.0892 39.8018 17.2234 39.4798 17.3111C39.1578 17.3989 38.7566 17.4428 38.2762 17.4428C37.5769 17.4428 37.0398 17.3374 36.665 17.1266C36.2902 16.9157 36.0663 16.6084 35.9934 16.2047V16.2048ZM41.1551 16.2048L42.2418 16.1359C42.3072 16.3738 42.4399 16.5486 42.6399 16.6602C42.8399 16.7717 43.1097 16.8276 43.4492 16.8276C43.809 16.8276 44.08 16.7781 44.2624 16.6787C44.4448 16.5794 44.5359 16.4632 44.5359 16.3304C44.5359 16.245 44.4976 16.1725 44.4209 16.1125C44.3441 16.0526 44.2102 16.0006 44.019 15.9562C43.8882 15.927 43.5901 15.8742 43.1248 15.7987C42.5261 15.7019 42.106 15.5829 41.8645 15.4418C41.5249 15.2432 41.3551 15.0012 41.3551 14.7157C41.3551 14.5319 41.435 14.36 41.5947 14.2001C41.7544 14.04 41.9846 13.9182 42.2852 13.8345C42.5858 13.7508 42.9487 13.709 43.3738 13.709C44.0681 13.709 44.5907 13.8082 44.9416 14.0068C45.2925 14.2053 45.4767 14.4704 45.4943 14.8018L44.3775 14.8337C44.3297 14.6483 44.2272 14.515 44.0699 14.4337C43.9127 14.3525 43.6769 14.3119 43.3625 14.3119C43.038 14.3119 42.7839 14.3555 42.6003 14.4424C42.4821 14.4982 42.4229 14.5728 42.4229 14.6663C42.4229 14.7517 42.4783 14.8247 42.589 14.8854C42.7298 14.9625 43.0719 15.0429 43.6153 15.1266C44.1586 15.2103 44.5605 15.2969 44.8208 15.3863C45.0812 15.4758 45.2849 15.598 45.4321 15.753C45.5792 15.9081 45.6528 16.0997 45.6528 16.3278C45.6528 16.5346 45.5648 16.7282 45.3887 16.9087C45.2126 17.0892 44.9636 17.2234 44.6416 17.3111C44.3196 17.3989 43.9184 17.4428 43.4379 17.4428C42.7386 17.4428 42.2016 17.3374 41.8268 17.1266C41.452 16.9157 41.2281 16.6084 41.1551 16.2047V16.2048Z" fill="#5CC1EF" stroke="white" stroke-width="2.711" stroke-linecap="round" stroke-linejoin="round"/>
<path d="M10.0449 17.3789V13.7705H14.1464V14.3809H11.1618V15.1809H13.9389V15.7889H11.1618V16.771H14.2521V17.3789H10.0449ZM14.6445 17.3789L16.5349 15.4959L14.8218 13.7705H16.1274L17.2367 14.9298L18.3234 13.7705H19.6176L17.897 15.523L19.7874 17.3789H18.4403L17.214 16.131L15.984 17.3789H14.6445ZM20.3685 17.3789V13.7705H22.1607C22.8399 13.7705 23.2826 13.7886 23.4889 13.8246C23.8059 13.8788 24.0712 13.9966 24.2851 14.1779C24.4989 14.3592 24.6058 14.5935 24.6058 14.8806C24.6058 15.1022 24.5441 15.2884 24.4209 15.4394C24.2976 15.5904 24.141 15.7089 23.9511 15.7951C23.7612 15.8812 23.5681 15.9382 23.3719 15.9661C23.1053 16.0007 22.7192 16.0177 22.2136 16.0177H21.4853V17.3788L20.3685 17.3789ZM21.4853 14.3809V15.4049H22.0966C22.5368 15.4049 22.8311 15.3863 22.9795 15.3483C23.1279 15.3105 23.2443 15.2514 23.3285 15.171C23.4128 15.0906 23.4549 14.9971 23.4549 14.8904C23.4549 14.7591 23.3958 14.6509 23.2776 14.5655C23.1594 14.4802 23.0097 14.4269 22.8286 14.4055C22.6953 14.389 22.4274 14.381 22.0249 14.381L21.4853 14.3809ZM25.534 17.3789V13.7705H27.8847C28.4758 13.7705 28.9054 13.803 29.1733 13.8677C29.4412 13.9325 29.6556 14.0479 29.8166 14.2136C29.9776 14.3793 30.0581 14.5688 30.0581 14.7821C30.0581 15.0529 29.9361 15.2765 29.6921 15.4529C29.4481 15.6293 29.0833 15.7405 28.5979 15.7864C28.8393 15.8783 29.0387 15.9792 29.1959 16.0892C29.3531 16.1991 29.5651 16.3944 29.8317 16.6749L30.5071 17.3789H29.1714L28.3639 16.5938C28.0771 16.3131 27.8809 16.1363 27.7753 16.0633C27.6696 15.9903 27.5577 15.9402 27.4395 15.9131C27.3212 15.886 27.1338 15.8727 26.8773 15.8727H26.6509V17.3791L25.534 17.3789ZM26.6509 15.2966H27.4772C28.013 15.2966 28.3476 15.2817 28.4809 15.2524C28.6142 15.2232 28.7186 15.172 28.7941 15.0998C28.8695 15.0276 28.9073 14.9374 28.9073 14.8291C28.9073 14.7077 28.8576 14.6096 28.7582 14.5349C28.6588 14.4603 28.5186 14.4131 28.3375 14.3934C28.2469 14.3854 27.9753 14.3812 27.5225 14.3812H26.6509V15.2966ZM31.1146 17.3789V13.7705H35.2161V14.3809H32.2315V15.1809H35.0086V15.7889H32.2315V16.771H35.3217V17.3789H31.1146ZM35.9934 16.2048L37.0801 16.1359C37.1455 16.3738 37.2781 16.5486 37.4781 16.6602C37.6781 16.7717 37.9479 16.8276 38.2875 16.8276C38.6472 16.8276 38.9182 16.7781 39.1006 16.6787C39.283 16.5794 39.3742 16.4632 39.3742 16.3304C39.3742 16.245 39.3358 16.1725 39.2591 16.1125C39.1824 16.0526 39.0484 16.0006 38.8572 15.9562C38.7264 15.927 38.4284 15.8742 37.963 15.7987C37.3643 15.7019 36.9442 15.5829 36.7027 15.4418C36.3631 15.2432 36.1933 15.0012 36.1933 14.7157C36.1933 14.5319 36.2732 14.36 36.4329 14.2001C36.5927 14.04 36.8228 13.9182 37.1234 13.8345C37.424 13.7508 37.7869 13.709 38.212 13.709C38.9063 13.709 39.4289 13.8082 39.7798 14.0068C40.1307 14.2053 40.315 14.4704 40.3326 14.8018L39.2157 14.8337C39.1679 14.6483 39.0654 14.515 38.9082 14.4337C38.751 14.3525 38.5151 14.3119 38.2007 14.3119C37.8762 14.3119 37.6221 14.3555 37.4385 14.4424C37.3203 14.4982 37.2612 14.5728 37.2612 14.6663C37.2612 14.7517 37.3165 14.8247 37.4272 14.8854C37.5681 14.9625 37.9102 15.0429 38.4535 15.1266C38.9968 15.2103 39.3987 15.2969 39.6591 15.3863C39.9194 15.4758 40.1232 15.598 40.2703 15.753C40.4175 15.9081 40.491 16.0997 40.491 16.3278C40.491 16.5346 40.403 16.7282 40.2269 16.9087C40.0508 17.0892 39.8018 17.2234 39.4798 17.3111C39.1578 17.3989 38.7566 17.4428 38.2762 17.4428C37.5769 17.4428 37.0398 17.3374 36.665 17.1266C36.2902 16.9157 36.0663 16.6084 35.9934 16.2047V16.2048ZM41.1551 16.2048L42.2418 16.1359C42.3072 16.3738 42.4399 16.5486 42.6399 16.6602C42.8399 16.7717 43.1097 16.8276 43.4492 16.8276C43.809 16.8276 44.08 16.7781 44.2624 16.6787C44.4448 16.5794 44.5359 16.4632 44.5359 16.3304C44.5359 16.245 44.4976 16.1725 44.4209 16.1125C44.3441 16.0526 44.2102 16.0006 44.019 15.9562C43.8882 15.927 43.5901 15.8742 43.1248 15.7987C42.5261 15.7019 42.106 15.5829 41.8645 15.4418C41.5249 15.2432 41.3551 15.0012 41.3551 14.7157C41.3551 14.5319 41.435 14.36 41.5947 14.2001C41.7544 14.04 41.9846 13.9182 42.2852 13.8345C42.5858 13.7508 42.9487 13.709 43.3738 13.709C44.0681 13.709 44.5907 13.8082 44.9416 14.0068C45.2925 14.2053 45.4767 14.4704 45.4943 14.8018L44.3775 14.8337C44.3297 14.6483 44.2272 14.515 44.0699 14.4337C43.9127 14.3525 43.6769 14.3119 43.3625 14.3119C43.038 14.3119 42.7839 14.3555 42.6003 14.4424C42.4821 14.4982 42.4229 14.5728 42.4229 14.6663C42.4229 14.7517 42.4783 14.8247 42.589 14.8854C42.7298 14.9625 43.0719 15.0429 43.6153 15.1266C44.1586 15.2103 44.5605 15.2969 44.8208 15.3863C45.0812 15.4758 45.2849 15.598 45.4321 15.753C45.5792 15.9081 45.6528 16.0997 45.6528 16.3278C45.6528 16.5346 45.5648 16.7282 45.3887 16.9087C45.2126 17.0892 44.9636 17.2234 44.6416 17.3111C44.3196 17.3989 43.9184 17.4428 43.4379 17.4428C42.7386 17.4428 42.2016 17.3374 41.8268 17.1266C41.452 16.9157 41.2281 16.6084 41.1551 16.2047V16.2048Z" fill="#2C8CD0"/>
</g>
<defs>
<clipPath id="clip0_996_21263">
<rect width="46.579" height="23.9719" fill="white" transform="translate(0 0.864258)"/>
</clipPath>
</defs>
</svg>
