<svg width="47" height="25" viewBox="0 0 47 25" fill="none" xmlns="http://www.w3.org/2000/svg">
<g clip-path="url(#clip0_996_21273)">
<path d="M43.9272 0.864258H2.65191C1.1873 0.864258 0 1.81299 0 2.9833V22.7171C0 23.8874 1.1873 24.8361 2.65191 24.8361H43.9272C45.3918 24.8361 46.5791 23.8874 46.5791 22.7171V2.9833C46.5791 1.81299 45.3918 0.864258 43.9272 0.864258Z" fill="#F9F9F9"/>
<path d="M2.89062 10.307H5.01296C5.49157 10.307 5.85641 10.3418 6.10749 10.4113C6.44486 10.5057 6.73385 10.6733 6.97446 10.9142C7.21507 11.1551 7.39814 11.45 7.52368 11.7989C7.64921 12.1478 7.71198 12.5781 7.71199 13.0896C7.71198 13.5391 7.65311 13.9265 7.53545 14.2518C7.39161 14.6492 7.1863 14.9708 6.91954 15.2166C6.71816 15.4029 6.44616 15.5482 6.10356 15.6525C5.84725 15.7294 5.50464 15.7679 5.07573 15.7679H2.89062V10.307ZM4.05183 11.2308V14.8479H4.91882C5.24312 14.8479 5.47719 14.8305 5.62104 14.7957C5.80933 14.7509 5.9656 14.6752 6.08983 14.5684C6.21405 14.4617 6.31539 14.286 6.39385 14.0413C6.47231 13.7967 6.51154 13.4634 6.51155 13.0412C6.51154 12.619 6.47228 12.2949 6.39385 12.0689C6.31539 11.8429 6.20556 11.6666 6.06433 11.54C5.9231 11.4133 5.74395 11.3277 5.52688 11.2829C5.36473 11.2482 5.04697 11.2308 4.57359 11.2308H4.05183ZM8.66527 15.7679V10.307H9.82647V15.7679H8.66527ZM10.6346 13.9911L11.7644 13.8868C11.8324 14.2469 11.9704 14.5114 12.1783 14.6802C12.3862 14.8491 12.6667 14.9335 13.0198 14.9335C13.3938 14.9335 13.6756 14.8584 13.8652 14.7082C14.0548 14.5579 14.1496 14.3822 14.1496 14.1811C14.1496 14.0519 14.1097 13.9421 14.03 13.8514C13.9502 13.7608 13.8109 13.6819 13.6122 13.6149C13.4762 13.5701 13.1662 13.4907 12.6824 13.3765C12.06 13.2299 11.6232 13.0499 11.3721 12.8363C11.0191 12.5358 10.8425 12.1695 10.8425 11.7374C10.8425 11.4593 10.9256 11.1992 11.0916 10.957C11.2577 10.7149 11.497 10.5305 11.8096 10.4038C12.1221 10.2772 12.4993 10.2139 12.9413 10.2139C13.6632 10.2139 14.2065 10.3641 14.5713 10.6646C14.9362 10.9651 15.1277 11.3662 15.146 11.8678L13.9848 11.9162C13.9352 11.6356 13.8286 11.4338 13.6651 11.3109C13.5017 11.188 13.2565 11.1265 12.9296 11.1265C12.5922 11.1265 12.328 11.1923 12.1371 11.3239C12.0142 11.4084 11.9527 11.5213 11.9527 11.6629C11.9527 11.792 12.0103 11.9026 12.1253 11.9944C12.2718 12.1112 12.6275 12.2328 13.1924 12.3595C13.7573 12.4861 14.1751 12.6171 14.4458 12.7525C14.7165 12.8878 14.9283 13.0728 15.0813 13.3075C15.2343 13.5422 15.3108 13.8321 15.3108 14.1773C15.3108 14.4902 15.2193 14.7832 15.0362 15.0564C14.8531 15.3296 14.5942 15.5326 14.2595 15.6655C13.9247 15.7983 13.5075 15.8648 13.008 15.8648C12.281 15.8648 11.7226 15.7052 11.3329 15.3861C10.9432 15.067 10.7105 14.602 10.6346 13.9911V13.9911ZM19.9753 13.7601L21.1012 14.0991C20.9285 14.6951 20.6415 15.1378 20.24 15.4271C19.8386 15.7164 19.3293 15.8611 18.712 15.8611C17.9484 15.8611 17.3207 15.6134 16.829 15.1179C16.3373 14.6225 16.0915 13.9451 16.0915 13.0859C16.0915 12.177 16.3386 11.4711 16.8329 10.9682C17.3272 10.4653 17.9771 10.2139 18.7827 10.2139C19.4862 10.2139 20.0576 10.4113 20.497 10.8061C20.7585 11.0396 20.9547 11.3749 21.0855 11.8119L19.936 12.0727C19.868 11.7896 19.7261 11.5661 19.5104 11.4022C19.2946 11.2383 19.0324 11.1563 18.7238 11.1563C18.2975 11.1563 17.9516 11.3016 17.6862 11.5921C17.4207 11.8827 17.288 12.3533 17.288 13.0039C17.288 13.6943 17.4188 14.186 17.6803 14.4791C17.9418 14.7721 18.2818 14.9186 18.7003 14.9186C19.0089 14.9186 19.2743 14.8255 19.4966 14.6392C19.7189 14.453 19.8785 14.16 19.9753 13.7601ZM21.8661 13.071C21.8661 12.5147 21.9537 12.0478 22.129 11.6704C22.2597 11.3922 22.4382 11.1427 22.6645 10.9216C22.8907 10.7006 23.1385 10.5367 23.4079 10.4299C23.7662 10.2859 24.1794 10.2139 24.6475 10.2139C25.4949 10.2139 26.1729 10.4635 26.6816 10.9626C27.1903 11.4618 27.4446 12.1559 27.4446 13.0449C27.4446 13.9265 27.1922 14.6163 26.6875 15.1142C26.1827 15.6121 25.508 15.8611 24.6632 15.8611C23.808 15.8611 23.128 15.6134 22.6233 15.1179C22.1185 14.6225 21.8661 13.9402 21.8661 13.071ZM23.0626 13.0338C23.0626 13.6521 23.213 14.1209 23.5138 14.44C23.8145 14.7591 24.1964 14.9187 24.6593 14.9187C25.1222 14.9187 25.5021 14.7603 25.7989 14.4437C26.0958 14.1271 26.2442 13.6521 26.2442 13.0189C26.2442 12.3931 26.0997 11.9262 25.8107 11.6183C25.5217 11.3103 25.1379 11.1563 24.6593 11.1563C24.1807 11.1563 23.7949 11.3122 23.502 11.6238C23.2091 11.9355 23.0626 12.4055 23.0626 13.0338ZM29.8141 15.7679L27.7585 10.307H29.0177L30.4732 14.3487L31.8815 10.307H33.1133L31.0538 15.7679H29.8141ZM33.7136 15.7679V10.307H37.9778V11.2308H34.8748V12.4415H37.7621V13.3615H34.8748V14.8479H38.0877V15.7679H33.7136ZM39.0841 15.7679V10.307H41.5282C42.1427 10.307 42.5893 10.356 42.8679 10.4541C43.1464 10.5522 43.3693 10.7267 43.5367 10.9775C43.7041 11.2283 43.7878 11.5152 43.7878 11.838C43.7878 12.2478 43.6609 12.5861 43.4073 12.8531C43.1536 13.12 42.7743 13.2883 42.2696 13.3578C42.5207 13.4969 42.7279 13.6496 42.8914 13.816C43.0548 13.9824 43.2752 14.2779 43.5524 14.7026L44.2546 15.7679H42.8659L42.0264 14.5796C41.7282 14.155 41.5242 13.8874 41.4144 13.7769C41.3045 13.6664 41.1882 13.5906 41.0652 13.5497C40.9423 13.5087 40.7475 13.4882 40.4807 13.4882H40.2453V15.7679L39.0841 15.7679ZM40.2453 12.6165H41.1045C41.6615 12.6165 42.0094 12.5942 42.148 12.5495C42.2866 12.5048 42.3951 12.4278 42.4736 12.3185C42.552 12.2093 42.5913 12.0727 42.5913 11.9088C42.5913 11.725 42.5396 11.5766 42.4363 11.4636C42.333 11.3506 42.1872 11.2793 41.9989 11.2494C41.9048 11.2371 41.6223 11.2308 41.1515 11.2308H40.2453V12.6165Z" fill="#1A1A1A"/>
<path fill-rule="evenodd" clip-rule="evenodd" d="M28.5222 13.0988C28.5222 14.7207 26.8767 16.0355 24.847 16.0355C22.8173 16.0355 21.1719 14.7207 21.1719 13.0988C21.1719 11.4769 22.8173 10.1621 24.847 10.1621C26.8767 10.1621 28.5222 11.4769 28.5222 13.0988Z" fill="#FC8100"/>
<path d="M46.2841 15.9941L12.7115 24.1084L11.5371 24.6052H43.7939C45.2629 24.6052 46.2841 23.8339 46.2841 22.6601V15.9941Z" fill="#FC8100"/>
</g>
<defs>
<clipPath id="clip0_996_21273">
<rect width="46.5791" height="23.9719" fill="white" transform="translate(0 0.864258)"/>
</clipPath>
</defs>
</svg>
