<svg width="30" height="30" viewBox="0 0 30 30" fill="none" xmlns="http://www.w3.org/2000/svg">
<path d="M19.0559 22.2887H10.9434V7.70996H19.0559V22.2887Z" fill="#FF5F00"/>
<path d="M11.4587 14.9998C11.4587 12.0423 12.8438 9.40852 15 7.71102C13.3675 6.42352 11.3488 5.72602 9.27125 5.72852C4.15 5.72852 0 9.87977 0 14.9998C0 20.1198 4.15 24.271 9.27 24.271C11.3488 24.2735 13.3675 23.576 14.9987 22.2885C12.8438 20.591 11.4587 17.9573 11.4587 14.9998Z" fill="#EB001B"/>
<path d="M30 14.9998C30 20.1198 25.85 24.271 20.73 24.271C18.6512 24.2735 16.6325 23.576 15 22.2885C17.1562 20.591 18.5413 17.9573 18.5413 14.9998C18.5413 12.0423 17.1562 9.40852 15 7.71102C16.6325 6.42352 18.6512 5.72602 20.73 5.72852C25.85 5.72852 30 9.87977 30 14.9998Z" fill="#F79E1B"/>
</svg>
