<svg width="18" height="14" viewBox="0 0 18 14" fill="none" xmlns="http://www.w3.org/2000/svg">
<path fill-rule="evenodd" clip-rule="evenodd" d="M17.75 2C17.75 1.5025 17.5525 1.02563 17.2006 0.674375C16.8494 0.3225 16.3725 0.125 15.875 0.125C12.8481 0.125 5.15188 0.125 2.125 0.125C1.6275 0.125 1.15062 0.3225 0.799375 0.674375C0.4475 1.02563 0.25 1.5025 0.25 2C0.25 4.395 0.25 9.605 0.25 12C0.25 12.4975 0.4475 12.9744 0.799375 13.3256C1.15062 13.6775 1.6275 13.875 2.125 13.875C5.15188 13.875 12.8481 13.875 15.875 13.875C16.3725 13.875 16.8494 13.6775 17.2006 13.3256C17.5525 12.9744 17.75 12.4975 17.75 12V2ZM16.5 2V12C16.5 12.1656 16.4344 12.325 16.3169 12.4419C16.2 12.5594 16.0406 12.625 15.875 12.625C12.8481 12.625 5.15188 12.625 2.125 12.625C1.95938 12.625 1.8 12.5594 1.68313 12.4419C1.56563 12.325 1.5 12.1656 1.5 12C1.5 9.605 1.5 4.395 1.5 2C1.5 1.83438 1.56563 1.675 1.68313 1.55813C1.8 1.44063 1.95938 1.375 2.125 1.375C5.15188 1.375 12.8481 1.375 15.875 1.375C16.0406 1.375 16.2 1.44063 16.3169 1.55813C16.4344 1.675 16.5 1.83438 16.5 2ZM6.24125 7L2.30813 3.06687C2.06438 2.82312 2.06438 2.42688 2.30813 2.18313C2.55188 1.93938 2.94812 1.93938 3.19187 2.18313C3.19187 2.18313 5.82625 4.81687 7.67437 6.665C8.02562 7.01687 8.5025 7.21438 9 7.21438C9.4975 7.21438 9.97437 7.01687 10.3256 6.665C12.1737 4.81687 14.8081 2.18313 14.8081 2.18313C15.0519 1.93938 15.4481 1.93938 15.6919 2.18313C15.9356 2.42688 15.9356 2.82312 15.6919 3.06687L11.7587 7L15.6919 10.9331C15.9356 11.1769 15.9356 11.5731 15.6919 11.8169C15.4481 12.0606 15.0519 12.0606 14.8081 11.8169L10.8494 7.85812C10.3162 8.25 9.66938 8.46438 9 8.46438C8.33062 8.46438 7.68375 8.25 7.15063 7.85812L3.19187 11.8169C2.94812 12.0606 2.55188 12.0606 2.30813 11.8169C2.06438 11.5731 2.06438 11.1769 2.30813 10.9331L6.24125 7Z" fill="#195EC8"/>
</svg>
