<svg width="90" height="90" viewBox="0 0 90 90" fill="none" xmlns="http://www.w3.org/2000/svg">
<path d="M80.1 18.9H71.1V9.9C71.1 6.921 68.67 4.5 65.7 4.5H35.1C34.623 4.5 34.164 4.689 33.822 5.022L19.953 18.9H9.9C6.921 18.9 4.5 21.321 4.5 24.3V71.1C4.5 74.079 6.921 76.5 9.9 76.5H37.836L37.233 78.012C36.7781 79.1606 35.988 80.1458 34.9655 80.8392C33.943 81.5326 32.7354 81.9023 31.5 81.9H27.9C26.901 81.9 26.1 82.701 26.1 83.7C26.1 84.1774 26.2896 84.6352 26.6272 84.9728C26.9648 85.3104 27.4226 85.5 27.9 85.5H62.1C62.5774 85.5 63.0352 85.3104 63.3728 84.9728C63.7104 84.6352 63.9 84.1774 63.9 83.7C63.9 83.2226 63.7104 82.7648 63.3728 82.4272C63.0352 82.0896 62.5774 81.9 62.1 81.9H58.5C55.953 81.9 53.703 80.37 52.767 78.021L52.155 76.5H80.1C83.07 76.5 85.5 74.079 85.5 71.1V24.3C85.5 21.321 83.07 18.9 80.1 18.9ZM33.3 10.647V17.1C33.3 18.09 32.49 18.9 31.5 18.9H25.038L33.3 10.647ZM22.5 22.5H31.5C34.47 22.5 36.9 20.079 36.9 17.1V8.1H65.7C66.69 8.1 67.5 8.91 67.5 9.9V63.9H22.5V22.5ZM8.1 24.3C8.1 23.8226 8.28964 23.3648 8.62721 23.0272C8.96477 22.6896 9.42261 22.5 9.9 22.5H18.9V63.9H8.1V24.3ZM39.087 81.9C39.69 81.144 40.194 80.289 40.572 79.353L41.715 76.5H48.276L49.419 79.353C49.797 80.289 50.301 81.144 50.913 81.9H39.087ZM81.9 71.1C81.9 72.09 81.09 72.9 80.1 72.9H9.9C9.42261 72.9 8.96477 72.7104 8.62721 72.3728C8.28964 72.0352 8.1 71.5774 8.1 71.1V67.5H81.9V71.1ZM81.9 63.9H71.1V22.5H80.1C81.09 22.5 81.9 23.31 81.9 24.3V63.9Z" fill="#EEF1F5"/>
<path d="M54.9018 51.3H35.1018C34.1028 51.3 33.3018 52.101 33.3018 53.1C33.3018 53.5774 33.4914 54.0352 33.829 54.3728C34.1665 54.7104 34.6244 54.9 35.1018 54.9H54.9018C55.3791 54.9 55.837 54.7104 56.1745 54.3728C56.5121 54.0352 56.7018 53.5774 56.7018 53.1C56.7018 52.6226 56.5121 52.1648 56.1745 51.8272C55.837 51.4897 55.3791 51.3 54.9018 51.3ZM58.5917 28.989L51.0858 32.742L46.5408 25.173C46.3805 24.9069 46.1541 24.6868 45.8837 24.5339C45.6133 24.3811 45.3079 24.3008 44.9972 24.3008C44.6866 24.3008 44.3812 24.3811 44.1108 24.5339C43.8404 24.6868 43.614 24.9069 43.4538 25.173L38.9088 32.742L31.4028 28.989C30.7548 28.665 29.9718 28.764 29.4228 29.241C28.8648 29.718 28.6578 30.474 28.8918 31.167L33.3917 44.667C33.511 45.0262 33.7404 45.3387 34.0474 45.5601C34.3543 45.7814 34.7233 45.9004 35.1018 45.9H54.9018C55.6758 45.9 56.3598 45.405 56.6028 44.667L61.1027 31.167C61.3368 30.474 61.1297 29.718 60.5807 29.241C60.0227 28.764 59.2487 28.665 58.5917 28.989ZM53.5968 42.3H36.3978L33.6797 34.155L38.7917 36.711C39.6378 37.125 40.6548 36.828 41.1408 36.027L45.0018 29.601L48.8538 36.027C49.3398 36.828 50.3658 37.125 51.2028 36.711L56.3148 34.155L53.5968 42.3Z" fill="#EEF1F5"/>
</svg>
