<svg width="20" height="20" viewBox="0 0 20 20" fill="none" xmlns="http://www.w3.org/2000/svg">
<path d="M10 14.7913C9.83424 14.7913 9.67527 14.7255 9.55806 14.6083C9.44085 14.4911 9.375 14.3321 9.375 14.1663V13.333C9.375 13.1672 9.44085 13.0083 9.55806 12.8911C9.67527 12.7739 9.83424 12.708 10 12.708C10.1658 12.708 10.3247 12.7739 10.4419 12.8911C10.5592 13.0083 10.625 13.1672 10.625 13.333V14.1663C10.625 14.3321 10.5592 14.4911 10.4419 14.6083C10.3247 14.7255 10.1658 14.7913 10 14.7913Z" fill="#195EC8"/>
<path d="M10 13.75C10.6904 13.75 11.25 13.1904 11.25 12.5C11.25 11.8096 10.6904 11.25 10 11.25C9.30964 11.25 8.75 11.8096 8.75 12.5C8.75 13.1904 9.30964 13.75 10 13.75Z" fill="#195EC8"/>
<path d="M15.0007 18.958H5.00065C4.393 18.9576 3.81036 18.716 3.38069 18.2863C2.95101 17.8566 2.70943 17.274 2.70898 16.6663V9.99967C2.70943 9.39202 2.95101 8.80938 3.38069 8.37971C3.81036 7.95003 4.393 7.70845 5.00065 7.70801H15.0007C15.6083 7.70845 16.1909 7.95003 16.6206 8.37971C17.0503 8.80938 17.2919 9.39202 17.2923 9.99967V16.6663C17.2919 17.274 17.0503 17.8566 16.6206 18.2863C16.1909 18.716 15.6083 18.9576 15.0007 18.958ZM5.00065 8.95801C4.72452 8.95845 4.45982 9.06834 4.26457 9.26359C4.06931 9.45885 3.95943 9.72354 3.95898 9.99967V16.6663C3.95943 16.9425 4.06931 17.2072 4.26457 17.4024C4.45982 17.5977 4.72452 17.7076 5.00065 17.708H15.0007C15.2768 17.7076 15.5415 17.5977 15.7367 17.4024C15.932 17.2072 16.0419 16.9425 16.0423 16.6663V9.99967C16.0419 9.72354 15.932 9.45885 15.7367 9.26359C15.5415 9.06834 15.2768 8.95845 15.0007 8.95801H5.00065Z" fill="#195EC8"/>
<path d="M14.1673 8.95866C14.0016 8.95866 13.8426 8.89281 13.7254 8.7756C13.6082 8.65839 13.5423 8.49942 13.5423 8.33366V5.83366C13.5423 4.89435 13.1692 3.99351 12.505 3.32932C11.8408 2.66513 10.94 2.29199 10.0007 2.29199C9.06134 2.29199 8.16051 2.66513 7.49631 3.32932C6.83212 3.99351 6.45898 4.89435 6.45898 5.83366V8.33366C6.45898 8.49942 6.39314 8.65839 6.27593 8.7756C6.15872 8.89281 5.99974 8.95866 5.83398 8.95866C5.66822 8.95866 5.50925 8.89281 5.39204 8.7756C5.27483 8.65839 5.20898 8.49942 5.20898 8.33366V5.83366C5.20898 4.56283 5.71382 3.34405 6.61243 2.44544C7.51104 1.54683 8.72982 1.04199 10.0007 1.04199C11.2715 1.04199 12.4903 1.54683 13.3889 2.44544C14.2875 3.34405 14.7923 4.56283 14.7923 5.83366V8.33366C14.7923 8.49942 14.7265 8.65839 14.6093 8.7756C14.492 8.89281 14.3331 8.95866 14.1673 8.95866Z" fill="#195EC8"/>
</svg>
