<svg width="18" height="18" viewBox="0 0 18 18" fill="none" xmlns="http://www.w3.org/2000/svg">
<path d="M9 8.3125C9.81585 8.3125 10.6134 8.07057 11.2917 7.61731C11.9701 7.16405 12.4988 6.51982 12.811 5.76607C13.1232 5.01233 13.2049 4.18293 13.0457 3.38275C12.8866 2.58258 12.4937 1.84758 11.9168 1.27069C11.3399 0.693795 10.6049 0.300927 9.80475 0.141763C9.00458 -0.0174015 8.17518 0.0642873 7.42143 0.376499C6.66769 0.68871 6.02345 1.21742 5.57019 1.89577C5.11693 2.57413 4.875 3.37165 4.875 4.1875C4.875 5.28152 5.3096 6.33073 6.08318 7.10432C6.85677 7.8779 7.90598 8.3125 9 8.3125ZM9 1.4375C9.5439 1.4375 10.0756 1.59879 10.5278 1.90096C10.9801 2.20313 11.3325 2.63263 11.5407 3.13512C11.7488 3.63762 11.8033 4.19055 11.6972 4.724C11.5911 5.25745 11.3291 5.74745 10.9445 6.13205C10.5599 6.51664 10.0699 6.77855 9.5365 6.88466C9.00305 6.99077 8.45012 6.93631 7.94762 6.72817C7.44512 6.52003 7.01563 6.16755 6.71346 5.71532C6.41128 5.26308 6.25 4.7314 6.25 4.1875C6.25 3.45816 6.53973 2.75868 7.05546 2.24296C7.57118 1.72723 8.27065 1.4375 9 1.4375ZM9 9.6875C4.22188 9.6875 0.75 12.8706 0.75 17.25C0.75 17.4323 0.822433 17.6072 0.951364 17.7361C1.0803 17.8651 1.25516 17.9375 1.4375 17.9375C1.61984 17.9375 1.7947 17.8651 1.92364 17.7361C2.05257 17.6072 2.125 17.4323 2.125 17.25C2.125 13.6681 5.01937 11.0625 9 11.0625C12.9806 11.0625 15.875 13.6681 15.875 17.25C15.875 17.4323 15.9474 17.6072 16.0764 17.7361C16.2053 17.8651 16.3802 17.9375 16.5625 17.9375C16.7448 17.9375 16.9197 17.8651 17.0486 17.7361C17.1776 17.6072 17.25 17.4323 17.25 17.25C17.25 12.8706 13.8125 9.6875 9 9.6875Z" fill="#195EC8"/>
</svg>
