<svg width="20" height="20" viewBox="0 0 20 20" fill="none" xmlns="http://www.w3.org/2000/svg">
<path d="M18.2257 9.58331C17.6924 8.65831 14.759 4.01664 9.77571 4.16664C5.16737 4.28331 2.50071 8.33331 1.77571 9.58331C1.70257 9.70999 1.66406 9.85369 1.66406 9.99997C1.66406 10.1463 1.70257 10.29 1.77571 10.4166C2.30071 11.325 5.10904 15.8333 10.0174 15.8333H10.2257C14.834 15.7166 17.509 11.6666 18.2257 10.4166C18.2989 10.29 18.3374 10.1463 18.3374 9.99997C18.3374 9.85369 18.2989 9.70999 18.2257 9.58331V9.58331ZM10.184 14.1666C6.59238 14.25 4.25071 11.175 3.51737 9.99997C4.35071 8.65831 6.52571 5.91664 9.85904 5.83331C13.434 5.74164 15.784 8.82497 16.5257 9.99997C15.6674 11.3416 13.5174 14.0833 10.184 14.1666V14.1666Z" fill="#808C98"/>
<path d="M10.0007 7.08301C9.42379 7.08301 8.85988 7.25407 8.38024 7.57455C7.9006 7.89504 7.52676 8.35056 7.306 8.88351C7.08525 9.41647 7.02749 10.0029 7.14003 10.5687C7.25257 11.1345 7.53035 11.6542 7.93826 12.0621C8.34616 12.47 8.86586 12.7478 9.43164 12.8603C9.99742 12.9728 10.5839 12.9151 11.1168 12.6943C11.6498 12.4736 12.1053 12.0997 12.4258 11.6201C12.7463 11.1404 12.9173 10.5765 12.9173 9.99967C12.9173 9.22613 12.61 8.48426 12.063 7.93728C11.5161 7.3903 10.7742 7.08301 10.0007 7.08301V7.08301ZM10.0007 11.2497C9.75343 11.2497 9.51175 11.1764 9.30619 11.039C9.10063 10.9017 8.94041 10.7064 8.8458 10.478C8.75119 10.2496 8.72644 9.99829 8.77467 9.75581C8.8229 9.51333 8.94195 9.29061 9.11677 9.11579C9.29158 8.94098 9.51431 8.82192 9.75679 8.77369C9.99927 8.72546 10.2506 8.75022 10.479 8.84482C10.7074 8.93943 10.9026 9.09965 11.04 9.30521C11.1773 9.51077 11.2507 9.75245 11.2507 9.99967C11.2507 10.3312 11.119 10.6491 10.8845 10.8836C10.6501 11.118 10.3322 11.2497 10.0007 11.2497Z" fill="#808C98"/>
</svg>
