<svg width="53" height="14" viewBox="0 0 53 14" fill="none" xmlns="http://www.w3.org/2000/svg">
<g clip-path="url(#clip0_1001_21320)">
<path d="M9.88518 7.15262L8.46581 1.57751C8.36619 1.25235 8.12283 0.968335 7.78208 0.779572C7.44134 0.59081 7.02704 0.510493 6.61812 0.553925H0.0503917L0 0.820056C5.10636 1.81634 8.48261 4.232 9.88518 7.15262ZM14.6556 0.676755L10.5067 9.28167L10.0783 7.98513C8.72644 5.84853 6.69685 4.04401 4.19931 2.75804L7.98709 13.2736H12.4636L19.1321 0.676755H14.6556ZM20.8538 0.676755L18.2082 13.3009H22.4075L25.0615 0.676755H20.8538ZM48.6448 0.676755H45.3526C44.892 0.627987 44.4245 0.704683 44.0233 0.894839C43.6221 1.085 43.3098 1.37788 43.1353 1.72763L36.8784 13.2873H41.3212C41.3212 13.2873 42.0435 11.7314 42.2115 11.3902H47.6286C47.7546 11.827 48.1409 13.2736 48.1409 13.2736H52.0715L48.6448 0.676755ZM43.4293 8.81082C43.782 8.08749 45.109 5.28288 45.109 5.28288C45.109 5.28288 45.4618 4.55954 45.6717 4.08187L45.9657 5.16687L46.9399 8.81082H43.4293ZM33.5945 5.73325C32.1247 5.15322 31.2177 4.75744 31.2261 4.17058C31.2345 3.58373 31.9904 3.08558 33.6449 3.08558C34.7307 3.06202 35.8103 3.2272 36.8112 3.57008L37.1975 3.71338L37.7686 0.983829C36.5547 0.626565 35.2719 0.448616 33.9808 0.45839C29.7815 0.45839 26.8504 2.16436 26.8252 4.62096C26.8252 6.42929 28.9249 7.44605 30.529 8.0329C32.1331 8.61975 32.7546 9.04966 32.7546 9.60239C32.7546 10.4486 31.436 10.8375 30.235 10.8375C28.861 10.8633 27.4983 10.6297 26.2541 10.1551L25.7082 9.95041L25.1119 12.7755C26.6215 13.2329 28.2207 13.4641 29.8319 13.4579C34.2748 13.4579 37.1639 11.7656 37.1975 9.14519C37.1891 7.72583 36.0637 6.634 33.5945 5.73325Z" fill="#273991"/>
<path d="M8.46581 1.57807C8.36619 1.25291 8.12283 0.968895 7.78209 0.780133C7.44134 0.59137 7.02704 0.511054 6.61812 0.554485H0.0503917L0 0.820616C5.10636 1.82373 8.48261 4.23256 9.88518 7.16L8.46581 1.57807Z" fill="#F99F1B"/>
</g>
<defs>
<clipPath id="clip0_1001_21320">
<rect width="52.0715" height="13" fill="white" transform="translate(0 0.458008)"/>
</clipPath>
</defs>
</svg>
