<svg id="logo" xmlns="http://www.w3.org/2000/svg" width="46.854" height="48" viewBox="0 0 46.854 48">
  <path id="Path_465" data-name="Path 465" d="M376,76h46.853v39.032a4.418,4.418,0,0,1-4.615,4.158H408.3c.173,0-8.873,4.719-8.873,4.81,0-.148-8.6-4.81-8.873-4.81h-9.939A4.418,4.418,0,0,1,376,115.032Zm26.722,24.145h-5.633a.248.248,0,0,1-.293-.264V98.76a.248.248,0,0,1,.293-.265h1.634V87.552H398.7l-4.634,10.373a1.2,1.2,0,0,1-2.145,0l-4.634-10.373h-.048V98.5h1.633a.26.26,0,0,1,.318.265v1.121a.26.26,0,0,1-.318.264h-5.608a.26.26,0,0,1-.317-.264V98.76a.26.26,0,0,1,.317-.265h1.854V86.013h-1.854a.259.259,0,0,1-.317-.264V84.63a.26.26,0,0,1,.317-.265h3.755a1.145,1.145,0,0,1,1.146.748l3.634,7.91,1.145,2.77h.1q.683-1.716,1.122-2.726l3.656-7.955a1.164,1.164,0,0,1,1.17-.748h3.732a.247.247,0,0,1,.293.265V85.75a.246.246,0,0,1-.293.264h-1.878V98.5h1.878a.247.247,0,0,1,.293.265v1.121a.247.247,0,0,1-.293.264m1.126,10.488h-1.365a.259.259,0,0,1-.317-.264v-5.143a.268.268,0,0,1,.317-.285h1.536a.256.256,0,0,1,.293.285v.462a2.016,2.016,0,0,0,.561,1.109A7.03,7.03,0,0,0,406,107.934a5.038,5.038,0,0,0,1.5.759,6.3,6.3,0,0,0,2.035.319,5.268,5.268,0,0,0,2.939-.7,2.221,2.221,0,0,0,1.06-1.956,1.587,1.587,0,0,0-.6-1.242,4.431,4.431,0,0,0-1.548-.823q-.952-.309-2.11-.572t-2.315-.6a13.157,13.157,0,0,1-2.11-.813,4.123,4.123,0,0,1-1.549-1.318A3.368,3.368,0,0,1,402.7,99a3.719,3.719,0,0,1,1.549-3.055,6.571,6.571,0,0,1,4.157-1.208q3.291,0,4.828,1.734l-.045-1.368a.26.26,0,0,1,.317-.264h1.365a.247.247,0,0,1,.293.264v4.791a.247.247,0,0,1-.293.264h-1.536a.246.246,0,0,1-.292-.264v-.62a2.506,2.506,0,0,0-1.122-1.825,5.08,5.08,0,0,0-3.292-.923,4.436,4.436,0,0,0-2.6.694,2.085,2.085,0,0,0-.987,1.768,1.713,1.713,0,0,0,.61,1.319,4.49,4.49,0,0,0,1.585.88q.974.327,2.145.605t2.341.6a13.646,13.646,0,0,1,2.146.792,4.225,4.225,0,0,1,1.585,1.264,3.053,3.053,0,0,1,.61,1.9,3.939,3.939,0,0,1-1.537,3.188,7.138,7.138,0,0,1-4.583,1.251,7.566,7.566,0,0,1-3.707-.814,6.159,6.159,0,0,1-2.121-1.756l.024,2.153a.246.246,0,0,1-.293.264" transform="translate(-376 -76)" fill="#ff1f59" fill-rule="evenodd"/>
</svg>
