<svg xmlns="http://www.w3.org/2000/svg" width="210" height="42" viewBox="0 0 210 42"><g><g><g><path fill="#001525" d="M1.47 35.124V3.716h33.997v31.408z"/></g><g><path fill="#001525" d="M0 .257h38.702v33.847c0 1.983-1.715 3.606-3.812 3.606H23.703c-2.393 0-4.352 1.82-4.352 4.085 0-2.266-1.959-4.085-4.353-4.085H3.811C1.715 37.71 0 36.087 0 34.104v-3.318z"/></g><g><path fill="#001525" d="M61.804 24.45v-8.341l-3.747 5.685h-.084l-3.726-5.644v8.3h-3.978V9.925h4.292l3.496 5.623 3.496-5.623h4.292V24.45zm11.486-5.727h3.287l-1.633-4.13zm5.527 5.727l-1.068-2.594h-5.652L71.05 24.45h-4.27L73.017 9.82h3.915l6.239 14.629zm21.65 0V13.452h-4.396V9.925h12.854v3.527h-4.396V24.45zm10.084 0V9.925h11.787v3.424h-7.767v2.2h7.034v3.174h-7.034v2.303h7.872v3.424zm17.726-7.553h2.68c1.381 0 2.177-.664 2.177-1.764 0-1.14-.837-1.722-2.199-1.722h-2.658zm4.731 7.553l-2.952-4.4h-1.78v4.4h-4.06V9.925h6.929c2.24 0 3.79.581 4.773 1.556.859.851 1.298 1.971 1.298 3.445 0 2.22-1.193 3.693-3.014 4.46l3.496 5.064zm25.594 0V11.44h-4.92V9.925h11.515v1.515h-4.92v13.01zm25.913-1.515h3.433c3.706 0 6.072-2.49 6.072-5.748 0-3.216-2.366-5.747-6.072-5.747h-3.433zm-1.654 1.515V9.925h5.087c4.606 0 7.788 3.133 7.788 7.262 0 4.088-3.182 7.263-7.788 7.263zm19.053 0v-5.748l-6.092-8.777h2.01l4.94 7.262 4.983-7.262h1.926l-6.093 8.756v5.769zm-61.008-2.117l1.026-1.203c1.528 1.37 2.994 2.054 5.024 2.054 1.968 0 3.266-1.038 3.266-2.51 0-1.35-.733-2.117-3.81-2.76-3.37-.727-4.92-1.805-4.92-4.233 0-2.283 2.03-3.963 4.815-3.963 2.136 0 3.664.601 5.15 1.784l-.963 1.266c-1.36-1.1-2.721-1.577-4.229-1.577-1.905 0-3.119 1.037-3.119 2.386 0 1.37.754 2.137 3.978 2.822 3.266.705 4.773 1.888 4.773 4.15 0 2.49-2.094 4.108-5.004 4.108-2.323 0-4.229-.768-5.987-2.324zm26.453-12.408h1.654v8.341c0 3.134 1.675 4.897 4.48 4.897 2.7 0 4.418-1.618 4.418-4.793V9.925h1.654v8.32c0 4.234-2.45 6.433-6.114 6.433-3.622 0-6.092-2.2-6.092-6.308zM82.917 22.292l2.261-2.677c1.445 1.141 3.057 1.743 4.753 1.743 1.089 0 1.675-.373 1.675-1.037 0-.602-.482-.934-2.47-1.39-3.12-.706-5.528-1.578-5.528-4.607 0-2.697 2.157-4.648 5.674-4.648 2.491 0 4.438.664 6.03 1.93l-2.032 2.842c-1.34-.933-2.805-1.431-4.103-1.431-.984 0-1.466.415-1.466.975 0 .664.503.955 2.534 1.411 3.37.726 5.464 1.805 5.464 4.565 0 2.967-2.366 4.73-5.925 4.73-2.596 0-5.066-.809-6.867-2.406z"/></g><g><path fill="#fff" d="M22.073 21.194H17.42c-.16 0-.242-.076-.242-.228v-.972c0-.153.082-.23.242-.23h1.35v-9.49h-.02l-3.828 8.996c-.16.381-.456.571-.885.571-.43 0-.726-.19-.887-.571l-3.827-8.995h-.04v9.49h1.35c.174 0 .262.076.262.229v.972c0 .152-.088.228-.263.228H6c-.175 0-.262-.076-.262-.228v-.972c0-.153.087-.23.262-.23h1.53V8.942H6c-.175 0-.262-.076-.262-.23v-.97c0-.153.087-.23.262-.23h3.102c.456 0 .772.216.946.649l3.001 6.86.947 2.401h.08c.377-.99.686-1.778.928-2.363l3.02-6.898c.175-.433.498-.648.967-.648h3.082c.162 0 .242.076.242.229v.97c0 .154-.08.23-.242.23h-1.55v10.824h1.55c.162 0 .242.076.242.229v.972c0 .152-.08.228-.242.228"/></g><g><path fill="#fff" d="M23.004 30.29h-1.128c-.175 0-.262-.077-.262-.23v-4.458c0-.165.087-.248.262-.248h1.268c.162 0 .242.083.242.248v.4c0 .24.155.561.464.962.308.4.617.727.926.981.309.255.722.473 1.24.658a4.98 4.98 0 0 0 1.68.276c1.035 0 1.843-.203 2.428-.61.584-.406.876-.972.876-1.696 0-.419-.164-.778-.493-1.076-.329-.3-.756-.537-1.28-.715a19.79 19.79 0 0 0-1.742-.496 30.165 30.165 0 0 1-1.913-.523 10.479 10.479 0 0 1-1.743-.705 3.442 3.442 0 0 1-1.279-1.144c-.329-.49-.493-1.064-.493-1.725 0-1.067.426-1.95 1.279-2.648.852-.7 1.997-1.049 3.434-1.049 1.813 0 3.142.502 3.988 1.505l-.04-1.181c0-.152.087-.228.262-.228h1.128c.16 0 .242.076.242.228v4.155c0 .152-.081.229-.242.229h-1.27c-.16 0-.24-.077-.24-.23v-.533c0-.521-.31-1.048-.927-1.582-.618-.534-1.525-.8-2.72-.8-.886 0-1.601.2-2.145.6-.543.4-.815.912-.815 1.534 0 .445.167.826.503 1.143.336.318.772.572 1.31.763.536.19 1.127.365 1.771.525.646.158 1.29.332 1.934.523.645.19 1.236.42 1.773.686.537.267.973.632 1.31 1.096.335.464.503 1.013.503 1.648 0 1.118-.423 2.04-1.27 2.764-.845.724-2.107 1.085-3.786 1.085-1.235 0-2.256-.235-3.061-.705-.806-.469-1.39-.978-1.753-1.524l.02 1.868c0 .152-.08.228-.241.228"/></g></g></g></svg>